<svg width="48" height="48" viewBox="0 0 48 48" fill="none" xmlns="http://www.w3.org/2000/svg">
<path d="M7.8 15C7.29 15 6.8628 14.8278 6.5184 14.4834C6.1728 14.1378 6 13.71 6 13.2V7.8C6 7.29 6.1728 6.8622 6.5184 6.5166C6.8628 6.1722 7.29 6 7.8 6H13.2C13.71 6 14.1378 6.1722 14.4834 6.5166C14.8278 6.8622 15 7.29 15 7.8C15 8.31 14.8278 8.7372 14.4834 9.0816C14.1378 9.4272 13.71 9.6 13.2 9.6H9.6V13.2C9.6 13.71 9.4278 14.1378 9.0834 14.4834C8.7378 14.8278 8.31 15 7.8 15ZM7.8 42C7.29 42 6.8628 41.8272 6.5184 41.4816C6.1728 41.1372 6 40.71 6 40.2V34.8C6 34.29 6.1728 33.8628 6.5184 33.5184C6.8628 33.1728 7.29 33 7.8 33C8.31 33 8.7378 33.1728 9.0834 33.5184C9.4278 33.8628 9.6 34.29 9.6 34.8V38.4H13.2C13.71 38.4 14.1378 38.5728 14.4834 38.9184C14.8278 39.2628 15 39.69 15 40.2C15 40.71 14.8278 41.1372 14.4834 41.4816C14.1378 41.8272 13.71 42 13.2 42H7.8ZM34.8 42C34.29 42 33.8628 41.8272 33.5184 41.4816C33.1728 41.1372 33 40.71 33 40.2C33 39.69 33.1728 39.2628 33.5184 38.9184C33.8628 38.5728 34.29 38.4 34.8 38.4H38.4V34.8C38.4 34.29 38.5728 33.8628 38.9184 33.5184C39.2628 33.1728 39.69 33 40.2 33C40.71 33 41.1372 33.1728 41.4816 33.5184C41.8272 33.8628 42 34.29 42 34.8V40.2C42 40.71 41.8272 41.1372 41.4816 41.4816C41.1372 41.8272 40.71 42 40.2 42H34.8ZM40.2 15C39.69 15 39.2628 14.8278 38.9184 14.4834C38.5728 14.1378 38.4 13.71 38.4 13.2V9.6H34.8C34.29 9.6 33.8628 9.4272 33.5184 9.0816C33.1728 8.7372 33 8.31 33 7.8C33 7.29 33.1728 6.8622 33.5184 6.5166C33.8628 6.1722 34.29 6 34.8 6H40.2C40.71 6 41.1372 6.1722 41.4816 6.5166C41.8272 6.8622 42 7.29 42 7.8V13.2C42 13.71 41.8272 14.1378 41.4816 14.4834C41.1372 14.8278 40.71 15 40.2 15ZM33.9 33.9H36.6V36.6H33.9V33.9ZM33.9 28.5H36.6V31.2H33.9V28.5ZM31.2 31.2H33.9V33.9H31.2V31.2ZM28.5 33.9H31.2V36.6H28.5V33.9ZM25.8 31.2H28.5V33.9H25.8V31.2ZM31.2 25.8H33.9V28.5H31.2V25.8ZM28.5 28.5H31.2V31.2H28.5V28.5ZM25.8 25.8H28.5V28.5H25.8V25.8ZM36.6 11.4V22.2H25.8V11.4H36.6ZM22.2 25.8V36.6H11.4V25.8H22.2ZM22.2 11.4V22.2H11.4V11.4H22.2ZM19.5 33.9V28.5H14.1V33.9H19.5ZM19.5 19.5V14.1H14.1V19.5H19.5ZM33.9 19.5V14.1H28.5V19.5H33.9Z" fill="#6D7A89"/>
</svg>
