<svg width="48" height="48" viewBox="0 0 48 48" fill="none" xmlns="http://www.w3.org/2000/svg">
<path d="M16.296 32.0322L19.4658 31.1178L38.5511 11.805C38.7017 11.6507 38.7855 11.4434 38.7845 11.2279C38.7835 11.0124 38.6977 10.8059 38.5457 10.653L37.4028 9.4975C37.3289 9.42161 37.2407 9.3612 37.1432 9.31978C37.0457 9.27836 36.941 9.25677 36.8351 9.25626C36.7292 9.25576 36.6242 9.27636 36.5264 9.31685C36.4285 9.35734 36.3397 9.41692 36.2652 9.4921L17.2302 28.7546L16.2942 32.0304L16.296 32.0322ZM39.6653 7.20804L40.8083 8.36537C42.3851 9.96188 42.3995 12.5375 40.8371 14.1178L21.1704 34.0211L14.3952 35.9722C13.9815 36.0879 13.5389 36.0349 13.1643 35.8247C12.7897 35.6144 12.5138 35.2642 12.3972 34.8508C12.3104 34.5536 12.3092 34.238 12.3936 33.9401L14.3646 27.0285L33.9792 7.17744C34.3521 6.8019 34.7961 6.50439 35.2853 6.30224C35.7745 6.1001 36.299 5.99737 36.8283 6.00005C37.3576 6.00273 37.881 6.11077 38.3681 6.31786C38.8552 6.52495 39.2962 6.82874 39.6653 7.20804ZM18.9312 9.28331C19.824 9.28331 20.5476 10.0159 20.5476 10.9194C20.549 11.133 20.5083 11.3448 20.4278 11.5426C20.3473 11.7405 20.2286 11.9205 20.0785 12.0725C19.9284 12.2244 19.7498 12.3453 19.5529 12.4282C19.3561 12.5111 19.1448 12.5543 18.9312 12.5555H12.4656C10.68 12.5555 9.2328 14.0206 9.2328 15.8259V35.4556C9.2328 37.2627 10.68 38.7278 12.4656 38.7278H31.8624C33.648 38.7278 35.097 37.2627 35.097 35.4556V28.913C35.097 28.0094 35.8206 27.2769 36.7134 27.2769C37.6061 27.2769 38.3298 28.0094 38.3298 28.9148V35.4556C38.3298 39.0698 35.4336 42 31.8624 42H12.4656C8.8944 42 6 39.0698 6 35.4556V15.8259C6 12.2135 8.8944 9.28331 12.4656 9.28331H18.9312Z" fill="#6D7A89"/>
</svg>
